<?xml version="1.0" encoding="UTF-8" standalone="no"?>
<svg
   id="logos"
   viewBox="0 0 431.70001 477.84"
   version="1.1"
   sodipodi:docname="liongard.svg"
   width="431.70001"
   height="477.84"
   inkscape:export-filename="liongard.png"
   inkscape:export-xdpi="96"
   inkscape:export-ydpi="96"
   xmlns:inkscape="http://www.inkscape.org/namespaces/inkscape"
   xmlns:sodipodi="http://sodipodi.sourceforge.net/DTD/sodipodi-0.dtd"
   xmlns="http://www.w3.org/2000/svg"
   xmlns:svg="http://www.w3.org/2000/svg">
  <sodipodi:namedview
     id="namedview58"
     pagecolor="#ffffff"
     bordercolor="#000000"
     borderopacity="0.25"
     inkscape:showpageshadow="2"
     inkscape:pageopacity="0.0"
     inkscape:pagecheckerboard="0"
     inkscape:deskcolor="#d1d1d1"
     showgrid="false" />
  <defs
     id="defs49">
    <style
       id="style47">.cls-2{fill:#d69829}</style>
  </defs>
  <path
     d="M 138.58,441.19 -11.85,200.02 26.32,27.84 65.52,13.36 c 2.64,-1 65.15,-23.52 150.33,-23.52 85.18,0 147.69,22.55 150.31,23.51 l 39.23,14.49 38.16,172.18 -150.43,241.17 -77.27,48.65 z"
     style="fill:#ffffff"
     id="path51" />
  <path
     d="m 280.03,87.71 -59.49,37.63 V 0 c 68.75,0.69 122.14,16.31 137.59,21.33 L 312.3,94.53 Z M 211.18,0 C 142.45,0.69 89.05,16.3 73.59,21.33 l 45.82,73.19 32.26,-6.81 59.51,37.64 z m 22,358.92 h -34.66 l -48.61,77.43 65.94,41.49 66,-41.5 z m 85.21,-256.5 c 8.37,38.41 9.22,41.56 20.18,91.07 h 93.13 l -35,-158.06 c 0,0 -19.93,-7.68 -29.42,-11.05 z m -225.3,91.07 c 11,-49.52 11.81,-52.66 20.19,-91.09 L 64.43,24.4 C 54.94,27.76 35,35.45 35,35.45 L 0,193.51 Z m 148.38,161 47,74.92 141.38,-226.57 H 336.78 Z M 94.97,202.84 H 1.85 l 141.34,226.6 47,-74.92 z"
     class="cls-2"
     id="path53" />
  <path
     d="m 302.94,163.43 -60.74,20.19 7.29,84.46 c 0,0 -13.34,0.53 -33.69,0.53 -20.35,0 -33.54,-0.53 -33.54,-0.53 l 7.29,-84.46 -60.7,-20.19 c -5.65,-1.83 -9.56,5.93 -6.36,10.92 l 13.63,21.49 c 3.2,5 11.21,5.24 16.85,3.34 l 28,-6.09 -10.41,86.19 c 0,0 39.26,5.26 40.05,13.31 0.73,7.35 1.7,19.66 1.7,19.66 l -45.74,5.17 6,9.31 43.28,-4.28 43.23,4.29 6.09,-9.31 -45.74,-5.17 c 0,0 0.91,-13.06 1.69,-19.66 1,-8.05 40.06,-13.31 40.06,-13.31 l -10.41,-86.19 28,6.09 c 5.64,1.9 13.65,1.66 16.85,-3.34 l 13.67,-21.5 c 3.21,-4.99 -0.71,-12.75 -6.35,-10.92 z"
     class="cls-2"
     id="path55" />
</svg>
